<svg width="16.036255" height="16.000000" viewBox="0 0 16.0363 16" fill="none" xmlns="http://www.w3.org/2000/svg" xmlns:xlink="http://www.w3.org/1999/xlink">
	<desc>
			Created with Pixso.
	</desc>
	<defs/>
	<path id="Vector" d="M14.92 15.15L14.93 15.16L15.64 14.47C16.15 13.96 16.16 13.14 15.67 12.65L13.2 10.17C12.7 9.68 11.89 9.7 11.37 10.21L10.13 11.46C10.05 11.41 9.97 11.37 9.88 11.32C9.09 10.88 8.01 10.28 6.88 9.15C5.74 8.01 5.14 6.93 4.7 6.14C4.66 6.06 4.61 5.98 4.57 5.9L5.41 5.06L5.82 4.65C6.33 4.14 6.34 3.32 5.85 2.83L3.38 0.35C2.88 -0.14 2.07 -0.12 1.56 0.39L1.42 0.52L0.86 1.09L0.88 1.11L0.88 1.11C0.64 1.41 0.45 1.75 0.3 2.12C0.17 2.48 0.08 2.82 0.05 3.15C-0.28 5.86 0.96 8.34 4.32 11.7C8.97 16.35 12.71 16 12.87 15.98C13.23 15.94 13.56 15.86 13.91 15.72C14.27 15.58 14.62 15.38 14.92 15.15ZM1.62 1.46L1.51 1.6Q1.22 1.96 1.05 2.42Q0.89 2.84 0.84 3.24Q0.73 4.15 0.89 5.01Q0.89 5.01 0.89 5.02Q1.05 5.9 1.51 6.83Q1.99 7.78 2.82 8.84Q3.65 9.9 4.89 11.14Q6.42 12.67 8.01 13.65Q9.28 14.43 10.52 14.83Q11.4 15.11 12.19 15.18Q12.58 15.21 12.79 15.19Q13.2 15.14 13.62 14.98Q14.06 14.8 14.42 14.52L14.53 14.43L15.08 13.9Q15.15 13.83 15.19 13.74Q15.23 13.65 15.23 13.54Q15.23 13.42 15.19 13.33Q15.16 13.27 15.11 13.22L12.63 10.74L12.63 10.74Q12.58 10.69 12.52 10.66Q12.42 10.61 12.31 10.61Q12.21 10.62 12.13 10.65Q12.03 10.69 11.94 10.77L10.27 12.45L9.49 12.02Q9.07 11.79 8.83 11.64Q8.42 11.4 8.06 11.16Q7.35 10.68 6.73 10.11Q6.51 9.91 6.31 9.71Q6.12 9.52 5.94 9.32Q5.36 8.69 4.87 7.97Q4.63 7.61 4.38 7.19Q4.24 6.96 4.01 6.53L4.01 6.53L4.01 6.53L4.01 6.53L4.01 6.53Q4 6.52 3.98 6.49Q3.91 6.36 3.88 6.3L3.57 5.77L4.84 4.5L5.25 4.09Q5.34 4 5.38 3.89Q5.41 3.81 5.41 3.72Q5.41 3.6 5.37 3.51Q5.34 3.45 5.29 3.4L2.81 0.92Q2.76 0.87 2.7 0.84Q2.61 0.79 2.49 0.8Q2.4 0.8 2.32 0.83Q2.21 0.87 2.12 0.95L1.62 1.46Z" fill="#956D84" fill-opacity="1.000000" fill-rule="evenodd"/>
</svg>
