<svg width="22.000000" height="15.400146" viewBox="0 0 22 15.4001" fill="none" xmlns="http://www.w3.org/2000/svg" xmlns:xlink="http://www.w3.org/1999/xlink">
	<desc>
			Created with Pixso.
	</desc>
	<defs/>
	<path id="Vector" d="M21.72 6.51L19.19 3.66C18.98 3.43 18.68 3.29 18.37 3.3L15.03 3.3L15.03 1.1C15.03 0.49 14.54 0 13.93 0L1.09 0C0.49 0 0 0.49 0 1.1L0 10.63C-6.11e-5 10.73 0.03 10.82 0.1 10.89C0.17 10.96 0.26 11 0.36 11L0.73 11L0.73 12.1C0.73 12.7 1.22 13.19 1.83 13.2L2.59 13.2C2.77 14.46 3.85 15.4 5.13 15.4C6.4 15.4 7.48 14.46 7.67 13.2L14.32 13.2C14.51 14.46 15.59 15.4 16.86 15.4C18.14 15.4 19.22 14.46 19.4 13.2L20.9 13.2C21.5 13.19 21.99 12.7 22 12.1L22 7.24C21.99 6.97 21.9 6.71 21.72 6.51ZM0.73 10.26L0.73 1.1C0.73 0.89 0.89 0.73 1.09 0.73L13.93 0.73C14.13 0.73 14.29 0.89 14.3 1.1L14.3 10.26L0.73 10.26ZM2.59 12.46L1.83 12.46C1.63 12.46 1.46 12.3 1.46 12.1L1.46 11L3.34 11C2.93 11.39 2.67 11.9 2.59 12.46ZM5.13 14.66C4.12 14.66 3.29 13.84 3.29 12.83C3.29 11.82 4.12 11 5.13 11C6.14 11 6.96 11.82 6.96 12.83C6.96 13.84 6.14 14.66 5.13 14.66ZM8.79 12.46L7.67 12.46C7.59 11.9 7.32 11.39 6.92 11L8.79 11L8.79 12.46ZM12.1 12.46L9.53 12.46L9.53 11L12.1 11L12.1 12.46ZM14.32 12.46L12.83 12.46L12.83 11L15.07 11C14.67 11.39 14.4 11.9 14.32 12.46ZM16.86 14.66C15.85 14.66 15.03 13.84 15.03 12.83C15.03 11.82 15.85 11 16.86 11C17.87 11 18.7 11.82 18.7 12.83C18.69 13.84 17.87 14.66 16.86 14.66ZM21.26 12.1C21.26 12.3 21.1 12.46 20.9 12.46L19.4 12.46C19.22 11.2 18.14 10.26 16.86 10.26L15.03 10.26L15.03 4.03L16.5 4.03L16.5 7.69C16.5 8.3 16.99 8.79 17.6 8.8L21.26 8.8L21.26 12.1ZM21.26 8.06L17.6 8.06C17.39 8.06 17.23 7.9 17.23 7.69L17.23 4.03L18.37 4.03C18.47 4.03 18.57 4.07 18.64 4.15L21.17 7C21.23 7.06 21.26 7.15 21.26 7.24L21.26 8.06L21.26 8.06Z" fill="#956D84" fill-opacity="1.000000" fill-rule="nonzero"/>
</svg>
