<svg width="40.000000" height="35.164062" viewBox="0 0 40 35.1641" fill="none" xmlns="http://www.w3.org/2000/svg" xmlns:xlink="http://www.w3.org/1999/xlink">
	<desc>
			Created with Pixso.
	</desc>
	<defs/>
	<path id="Vector" d="M16.5 35.16C16.03 35.16 15.57 34.99 15.22 34.68C13.89 33.51 12.6 32.42 11.47 31.45L11.46 31.45C8.14 28.61 5.27 26.17 3.27 23.76C1.04 21.06 0 18.51 0 15.72C0 13.01 0.92 10.5 2.61 8.67C4.32 6.82 6.67 5.8 9.21 5.8C11.12 5.8 12.86 6.4 14.4 7.59C15.17 8.19 15.88 8.92 16.5 9.78C17.11 8.92 17.82 8.19 18.59 7.59C20.13 6.4 21.87 5.8 23.78 5.8C26.32 5.8 28.67 6.82 30.38 8.67C32.07 10.5 32.99 13.01 32.99 15.72C32.99 18.51 31.96 21.06 29.72 23.76C27.72 26.17 24.85 28.61 21.53 31.45C20.39 32.41 19.11 33.51 17.77 34.68C17.42 34.99 16.96 35.16 16.5 35.16ZM9.21 7.73C7.21 7.73 5.37 8.53 4.03 9.98C2.68 11.46 1.93 13.49 1.93 15.72C1.93 18.06 2.8 20.16 4.76 22.52C6.65 24.81 9.46 27.2 12.71 29.98L12.72 29.98C13.86 30.95 15.15 32.05 16.49 33.23C17.84 32.05 19.14 30.95 20.28 29.98C23.53 27.2 26.34 24.81 28.23 22.52C30.19 20.16 31.06 18.06 31.06 15.72C31.06 13.49 30.31 11.46 28.96 9.98C27.62 8.53 25.78 7.73 23.78 7.73C22.31 7.73 20.96 8.2 19.77 9.12C18.71 9.94 17.98 10.97 17.54 11.7C17.32 12.07 16.93 12.3 16.5 12.3C16.06 12.3 15.67 12.07 15.45 11.7C15.01 10.97 14.28 9.94 13.22 9.12C12.03 8.2 10.68 7.73 9.21 7.73Z" fill="#956D84" fill-opacity="1.000000" fill-rule="nonzero"/>
	<circle id="Ellipse 2" cx="32.000000" cy="8.000000" r="8.000000" fill="#956D84" fill-opacity="1.000000"/>
	<path id="2" d="M33.65 7.59Q33.8 7.17 33.8 6.76Q33.8 6.4 33.67 6.12Q33.57 5.87 33.38 5.69Q33.37 5.68 33.35 5.66Q33.14 5.48 32.85 5.38Q32.56 5.28 32.22 5.28Q31.68 5.28 31.29 5.44Q30.89 5.59 30.58 5.85L31 6.59Q31.18 6.42 31.45 6.31Q31.72 6.2 31.97 6.2Q32.36 6.2 32.55 6.4Q32.56 6.41 32.57 6.42Q32.61 6.46 32.64 6.51Q32.75 6.7 32.75 6.96Q32.75 7.23 32.65 7.53Q32.54 7.83 32.35 8.16Q32.17 8.48 31.94 8.8Q31.71 9.12 31.46 9.42Q31.22 9.72 30.98 9.99Q30.74 10.26 30.55 10.46L30.55 11L33.91 11L33.91 10.11L32.38 10.11L31.8 10.23L31.8 10.19L32.23 9.86Q32.49 9.55 32.77 9.18Q33.04 8.8 33.27 8.4Q33.5 8 33.65 7.59Z" fill="#FFFFFF" fill-opacity="1.000000" fill-rule="evenodd"/>
</svg>
