<svg width="16.000000" height="16.000000" viewBox="0 0 16 16" fill="none" xmlns="http://www.w3.org/2000/svg" xmlns:xlink="http://www.w3.org/1999/xlink">
	<desc>
			Created with Pixso.
	</desc>
	<defs/>
	<path id="Vector" d="M13.65 10.34C12.78 9.47 11.74 8.82 10.61 8.43C11.82 7.6 12.62 6.2 12.62 4.62C12.62 2.07 10.55 0 8 0C5.44 0 3.37 2.07 3.37 4.62C3.37 6.2 4.17 7.6 5.38 8.43C4.25 8.82 3.21 9.47 2.34 10.34C0.83 11.85 0 13.86 0 16L1.25 16C1.25 12.27 4.27 9.25 8 9.25C11.72 9.25 14.75 12.27 14.75 16L16 16C16 13.86 15.16 11.85 13.65 10.34ZM8 8C6.13 8 4.62 6.48 4.62 4.62C4.62 2.76 6.13 1.25 8 1.25C9.86 1.25 11.37 2.76 11.37 4.62C11.37 6.48 9.86 8 8 8Z" fill="#956D84" fill-opacity="1.000000" fill-rule="nonzero"/>
</svg>
